<?xml version="1.0" ?>

<!-- Uploaded to: SVG Repo, www.svgrepo.com, Generator: SVG Repo Mixer Tools -->
<svg fill="#ffd56b" width="800px" height="800px" viewBox="0 0 512 512" xmlns="http://www.w3.org/2000/svg">

<g id="Health_analyst">

<path d="M236.3218,283.1785a1.0133,1.0133,0,0,1,.1172-1.1543l22.2725-28.8013a22.6073,22.6073,0,0,0,4.7011-13.7622V135.8542a6,6,0,0,0-12,0V239.4607a10.5537,10.5537,0,0,1-2.1933,6.4214l-22.2725,28.8012a13.0961,13.0961,0,0,0,10.36,21.1084H393.6978a6,6,0,0,0,0-12H237.3072A1.0151,1.0151,0,0,1,236.3218,283.1785Z"/>

<path d="M474.146,16.387H273.91a22.5225,22.5225,0,0,0-22.4971,22.4975V82.67a6,6,0,1,0,12,0V38.8845A10.509,10.509,0,0,1,273.91,28.387H474.146a10.509,10.509,0,0,1,10.4971,10.4975v234.41a10.5089,10.5089,0,0,1-10.4971,10.497H460.2134a6,6,0,0,0,0,12H474.146a22.522,22.522,0,0,0,22.4971-22.497V38.8845A22.5225,22.5225,0,0,0,474.146,16.387Z"/>

<path d="M322.3743,69.6941l3.2608-.8934a4.8435,4.8435,0,0,0,3.4724-5.6059l-.8067-4.1a4.8433,4.8433,0,0,0-4.7522-3.9083H309.773a4.8441,4.8441,0,0,0-4.7842,4.09,199.7745,199.7745,0,0,0-2.1733,41.2116,16.4137,16.4137,0,0,0,8.3232,13.2651l26.5928,15.09a11.1328,11.1328,0,0,1,5.6011,8.7724l.9821,11.9788a34.8508,34.8508,0,0,1-1.4514,13.1853l-24.2544,78.1126a6.2192,6.2192,0,0,0,5.94,8.0635h19.79a8.7227,8.7227,0,0,0,8.5425-6.9584l13.26-64.2068a3.9177,3.9177,0,0,1,7.6753.0082l13.1123,64.18a8.723,8.723,0,0,0,8.5464,6.9766h19.7744a6.2194,6.2194,0,0,0,5.94-8.0635L396.9341,162.78a34.8566,34.8566,0,0,1-1.4511-13.1853l.9824-11.9788a11.1313,11.1313,0,0,1,5.6006-8.7724l26.5927-15.09a16.4131,16.4131,0,0,0,8.3233-13.2649,199.739,199.739,0,0,0-2.1734-41.2118,4.8436,4.8436,0,0,0-4.7841-4.09H416.2491a4.8437,4.8437,0,0,0-4.7525,3.9083l-.8061,4.1a4.8432,4.8432,0,0,0,3.4721,5.6059l3.2608.8934a4.843,4.843,0,0,1,3.4053,5.8979l-4.4732,17.0826a4.83,4.83,0,0,1-3.3013,3.4126,60.3069,60.3069,0,0,0-13.5214,6.2744,18.7869,18.7869,0,0,1-13.8994,2.2238c-1.3965-.3172-2.9756-.6232-4.7188-.8833a2.5591,2.5591,0,0,1-2.1694-2.5367v-.07a2.5586,2.5586,0,0,1,1.2275-2.1805,16.7082,16.7082,0,0,0,8.1958-14.2112c0-9.3565-8.0566-16.9414-17.9951-16.9414s-17.9951,7.5849-17.9951,16.9414a16.7082,16.7082,0,0,0,8.1958,14.2112,2.5575,2.5575,0,0,1-.9971,4.72c-1.9394.273-3.6875.6042-5.2129.9506a18.7872,18.7872,0,0,1-13.8994-2.2238,60.3036,60.3036,0,0,0-13.5215-6.2744,4.83,4.83,0,0,1-3.301-3.4126L318.969,75.5919A4.8431,4.8431,0,0,1,322.3743,69.6941Z"/>

<path d="M269.7046,371.7761l.0225-.2851c.9355-17.9424-4.6631-33.1729-16.6406-45.2666-27.6905-27.9588-81.7-30.8493-100.8582-30.9588-3.4336-.02-9.5412-.0139-12.7236-.0027-18.742.0657-73.4016,2.7771-101.3137,30.9615-11.95,12.0654-17.55,27.2529-16.6465,45.14.0312,3.1836.5918,68.8506-5.8945,103.7285A17.3928,17.3928,0,0,0,32.7867,495.613H260.4712A17.3888,17.3888,0,0,0,277.649,475.47C274.2554,454.3318,266.6861,401.9138,269.7046,371.7761ZM141.01,307.2839c2.7,0,6.541-.0005,9.2244-.0013a241.5459,241.5459,0,0,1,25.7153,1.4368c-9.165,25.6119-26.7957,36.8353-33.0754,40.1429-6.2559-3.2861-23.6348-14.3539-32.8558-39.4963A241.3246,241.3246,0,0,1,141.01,307.2839Zm-112.417,174.36a5.239,5.239,0,0,1-1.1465-4.3584c6.8291-36.7168,6.1289-103.3594,6.0957-106.1777l-.0078-.2422c-.7637-14.6231,3.544-26.458,13.168-36.1827,12.7236-12.8576,32.6543-19.7116,51.2844-23.3514,8.384,24.631,23.7893,38.2243,33.6177,44.7429a11.78,11.78,0,0,1,5.2656,9.8244V483.613H79.47a285.1152,285.1152,0,0,0,3.4273-61.81,6,6,0,0,0-11.9649.916,280.09,280.09,0,0,1-3.6379,60.8935H32.7867A5.4389,5.4389,0,0,1,28.5933,481.6443Zm235.99.0713a5.3334,5.3334,0,0,1-4.1123,1.8974H224.79a280.075,280.075,0,0,1-3.6379-60.8935,6,6,0,0,0-11.9648-.916,285.1038,285.1038,0,0,0,3.4272,61.81H148.87V365.8989a11.7692,11.7692,0,0,1,5.2551-9.8172c9.9532-6.6006,25.6329-20.4609,33.9468-45.693,20.034,3.3471,42.5811,10.2273,56.5025,24.2946,9.5937,9.6934,13.9043,21.4864,13.1757,36.045-3.0107,30.4179,3.7491,79.8545,8.0508,106.6435A5.3161,5.3161,0,0,1,264.5835,481.7156Z"/>

<path d="M143.0044,182.0559c-29.85,0-54.1347,23.0205-54.1347,51.3164s24.2851,51.3169,54.1347,51.3169,54.1348-23.0205,54.1348-51.3169S172.8541,182.0559,143.0044,182.0559Zm0,90.6333c-23.2334,0-42.1347-17.6377-42.1347-39.3169s18.9013-39.3164,42.1347-39.3164,42.1348,17.6372,42.1348,39.3164S166.2378,272.6892,143.0044,272.6892Z"/>

<path d="M157.37,242.9556H128.639a5.1119,5.1119,0,0,0-4.86,6.6812c1.8672,5.8537,6.7027,13.4334,19.2254,13.4334s17.3581-7.58,19.2253-13.4335A5.112,5.112,0,0,0,157.37,242.9556Z"/>

<path d="M91.8951,151.1389h89.854a21.38,21.38,0,0,0,21.3559-21.3555v-15.04h73.9087a6,6,0,0,0,0-12H203.105V82.3821a21.38,21.38,0,0,0-21.3559-21.356H91.8951a21.38,21.38,0,0,0-21.356,21.356v47.4013A21.38,21.38,0,0,0,91.8951,151.1389Zm-9.356-68.7568a9.3669,9.3669,0,0,1,9.356-9.356h89.854a9.3668,9.3668,0,0,1,9.3559,9.356v47.4013a9.3664,9.3664,0,0,1-9.3559,9.3555H91.8951a9.3664,9.3664,0,0,1-9.356-9.3555Z"/>

<path d="M103.4332,99.67h66.8623a6,6,0,0,0,0-12H103.4332a6,6,0,0,0,0,12Z"/>

<path d="M103.4332,120.6887h33.3891a6,6,0,0,0,0-12H103.4332a6,6,0,0,0,0,12Z"/>

<path d="M452.857,342.4734h-8.7593c.0142-.1681.0254-.337.0254-.5088V301.1775a22.603,22.603,0,0,0-8.6978-17.7461L411.606,264.97a6,6,0,1,0-7.3516,9.4844l23.8194,18.4619a10.5216,10.5216,0,0,1,4.0493,8.2617v40.7871c0,.1718.0117.3407.0259.5088H384.16A21.38,21.38,0,0,0,362.8038,363.83v47.4014A21.38,21.38,0,0,0,384.16,432.5867H452.857a21.38,21.38,0,0,0,21.3559-21.3555V363.83A21.38,21.38,0,0,0,452.857,342.4734Zm9.3559,68.7578a9.3667,9.3667,0,0,1-9.3559,9.3555H384.16a9.3667,9.3667,0,0,1-9.3559-9.3555V363.83a9.3669,9.3669,0,0,1,9.3559-9.3564H452.857a9.3669,9.3669,0,0,1,9.3559,9.3564Z"/>

<path d="M441.4034,369.1169H395.6978a6,6,0,1,0,0,12h45.7056a6,6,0,0,0,0-12Z"/>

<path d="M423.0269,390.1365H395.6978a6,6,0,0,0,0,12h27.3291a6,6,0,0,0,0-12Z"/>

<circle cx="171.1995" cy="422.374" r="8.7886"/>

<circle cx="171.1995" cy="452.5695" r="8.7886"/>

<path d="M210.9393,366.4877H187.4708a4.9106,4.9106,0,0,0-4.9107,4.91v11.7344a16.6449,16.6449,0,0,0,33.29,0V371.3982A4.9106,4.9106,0,0,0,210.9393,366.4877Z"/>

<path d="M466.3658,163.9827H422.8194a6,6,0,0,0,0,12h43.5464a6,6,0,0,0,0-12Z"/>

<path d="M465.0059,187.7336H439.3047a6,6,0,0,0,0,12h25.7012a6,6,0,0,0,0-12Z"/>

</g>

</svg>